#!OML:ASF I:\Actors\actors\Patient Classification 1\Patient 1\Session 1\Subject1.ASF
:FULLY-SPECIFIED
:DEGREES
177
root -0.346269 17.5524 7.4024 5.92343 -2.06322 -7.02505
lowerback 3.30213 1.12218 5.29557
upperback -6.756 2.03927 1.49034
thorax -8.87092 0.695621 -1.60387
lowerneck -11.6453 0.0972978 3.68896
upperneck 30.6624 0.467883 -3.95891
head 11.9866 0.138675 -2.06836
rclavicle -6.85807e-015 2.28602e-014
rhumerus -22.6615 33.9327 -92.6624
rradius 92.8429
rwrist 3.3359
rhand -18.438 -53.5089
rfingers 7.12502
rthumb 7.84764 -83.3433
lclavicle -6.85807e-015 2.28602e-014
lhumerus -29.7744 -25.3697 102.908
lradius 84.8576
lwrist 11.267
lhand -33.6702 -3.10909
lfingers 7.12502
lthumb -6.86119 26.7597
rfemur -1.28123 24.4594 24.7781
rtibia 2.69881
rfoot -10.4387 -21.7153
rtoes -0.522438
lfemur 7.82944 -40.3285 -17.042
ltibia -4.07411
lfoot -14.5643 49.4312
ltoes 7.80706
178
root -0.343007 17.5529 7.40434 5.99021 -1.98753 -7.05858
lowerback 3.30267 1.13733 5.48885
upperback -6.78045 2.07774 1.51212
thorax -8.89251 0.701154 -1.6925
lowerneck -11.4777 0.267119 3.96695
upperneck 30.2874 0.831859 -4.55594
head 11.8217 0.260629 -2.28379
rclavicle -4.74598e-015 -2.98177e-015
rhumerus -23.0317 33.5655 -92.7609
rradius 95.7347
rwrist 13.364
rhand -15.1013 -53.5674
rfingers 7.12502
rthumb 11.0671 -83.2556
lclavicle -4.74598e-015 -2.98177e-015
lhumerus -30.0227 -25.317 102.966
lradius 85.1134
lwrist 11.0434
lhand -33.6008 -3.35108
lfingers 7.12502
lthumb -6.79426 26.5199
rfemur -1.31965 24.4297 24.7815
rtibia 2.64895
rfoot -10.3902 -21.7948
rtoes -0.555159
lfemur 7.73863 -40.3905 -16.9552
ltibia -4.06812
lfoot -14.5599 49.4205
ltoes 7.78347
179
root -0.340607 17.5577 7.40981 6.16925 -1.82261 -7.1346
lowerback 3.18207 1.08574 5.73464
upperback -6.89204 2.02929 1.5825
thorax -8.94559 0.660264 -1.74719
lowerneck -11.3188 0.517109 4.33054
upperneck 30.1996 1.34073 -5.29449
head 11.7872 0.442349 -2.55536
rclavicle 9.59136e-015 -3.97569e-015
rhumerus -23.0123 32.7553 -92.7163
rradius 99.1422
rwrist 18.2451
rhand -15.4121 -51.975
rfingers 7.12502
rthumb 10.7673 -81.679
lclavicle 9.59136e-015 -3.97569e-015
lhumerus -30.4814 -25.0666 103.063
lradius 85.3588
lwrist 10.8747
lhand -33.8171 -3.52316
lfingers 7.12502
lthumb -7.00302 26.341
rfemur -1.46423 24.5228 24.7981
rtibia 2.59141
rfoot -10.4195 -22.007
rtoes -0.299885
lfemur 7.46041 -40.4522 -16.6615
ltibia -4.08351
lfoot -14.6678 49.3158
ltoes 7.91601
180
root -0.339375 17.5652 7.41617 6.35584 -1.65805 -7.13671
lowerback 3.05349 1.00222 5.87411
upperback -7.05445 1.93065 1.64329
thorax -9.05603 0.599166 -1.74769
lowerneck -11.2894 0.757164 4.66686
upperneck 30.4546 1.83962 -5.99759
head 11.9218 0.62012 -2.82162
rclavicle 2.41772e-014 -1.90833e-014
rhumerus -22.9692 32.5217 -92.9354
rradius 102.222
rwrist 22.3524
rhand -18.7409 -48.989
rfingers 7.12502
rthumb 7.55527 -78.8341
lclavicle 2.41772e-014 -1.90833e-014
lhumerus -31.0364 -24.6599 103.155
lradius 85.5831
lwrist 10.8399
lhand -34.2011 -3.53012
lfingers 7.12502
lthumb -7.3737 26.3214
rfemur -1.61791 24.6608 24.7342
rtibia 2.5382
rfoot -10.4781 -22.2303
rtoes -0.0795628
lfemur 7.09599 -40.4454 -16.3994
ltibia -4.04129
lfoot -14.7236 49.1261
ltoes 8.03405
181
root -0.339073 17.5717 7.42063 6.4727 -1.58844 -7.08645
lowerback 2.95501 0.961505 5.96066
upperback -7.19192 1.88007 1.62254
thorax -9.15159 0.56249 -1.81082
lowerneck -11.3525 0.92058 4.94774
upperneck 30.8125 2.17001 -6.46158
head 12.1091 0.743377 -3.01541
rclavicle 3.00662e-015 1.51076e-014
rhumerus -22.8151 32.3581 -93.3417
rradius 103.994
rwrist 24.6638
rhand -25.7177 -47.0524
rfingers 7.12502
rthumb 0.81844 -77.0306
lclavicle 3.00662e-015 1.51076e-014
lhumerus -31.45 -24.3987 103.165
lradius 85.6956
lwrist 11.0459
lhand -34.5174 -3.31034
lfingers 7.12502
lthumb -7.67898 26.5302
rfemur -1.72226 24.7428 24.64
rtibia 2.51132
rfoot -10.4574 -22.3913
rtoes -0.214349
lfemur 6.808 -40.3196 -16.2554
ltibia -3.96261
lfoot -14.7445 48.9021
ltoes 8.17701
182
root -0.340083 17.575 7.42368 6.49326 -1.62203 -7.05683
lowerback 2.86521 0.967927 6.04668
upperback -7.2659 1.88635 1.55529
thorax -9.17611 0.554579 -1.92893
lowerneck -11.3483 1.01033 5.06484
upperneck 30.9786 2.31337 -6.56119
head 12.1887 0.809354 -3.06032
rclavicle 1.70209e-014 -1.78906e-015
rhumerus -22.62 32.0977 -93.7408
rradius 104.6
rwrist 25.8388
rhand -32.2981 -43.3553
rfingers 7.12502
rthumb -5.5365 -73.263
lclavicle 1.70209e-014 -1.78906e-015
lhumerus -31.6343 -24.3531 103.089
lradius 85.68
lwrist 11.4623
lhand -34.6331 -2.9348
lfingers 7.12502
lthumb -7.79061 26.9017
rfemur -1.7605 24.7525 24.613
rtibia 2.54304
rfoot -10.363 -22.4333
rtoes -0.653149
lfemur 6.72032 -40.1542 -16.2145
ltibia -3.91839
lfoot -14.7764 48.7508
ltoes 8.28638
183
root -0.341487 17.5742 7.42415 6.42683 -1.73622 -7.01228
lowerback 2.81078 0.996221 6.04407
upperback -7.27041 1.91579 1.50462
thorax -9.14457 0.567822 -1.98308
lowerneck -11.3368 1.04129 5.00922
upperneck 30.9726 2.33286 -6.43388
head 12.1835 0.827606 -2.99862
rclavicle 4.34841e-015 -4.1546e-014
rhumerus -22.4592 31.921 -93.8869
rradius 103.696
rwrist 29.1887
rhand -36.1525 -41.3411
rfingers 7.12502
rthumb -9.25698 -71.1179
lclavicle 4.34841e-015 -4.1546e-014
lhumerus -31.5778 -24.4212 103.002
lradius 85.5493
lwrist 11.9662
lhand -34.656 -2.77792
lfingers 7.12502
lthumb -7.8128 27.0577
rfemur -1.74991 24.7065 24.5887
rtibia 2.65039
rfoot -10.3717 -22.2845
rtoes -0.660596
lfemur 6.80017 -39.9862 -16.3085
ltibia -3.89811
lfoot -14.8036 48.6829
ltoes 8.25845
184
root -0.342692 17.5709 7.42213 6.28014 -1.88997 -6.97804
lowerback 2.82508 1.02336 5.96156
upperback -7.233 1.94618 1.51799
thorax -9.11089 0.590708 -1.92627
lowerneck -11.3684 1.08629 4.98114
upperneck 30.9521 2.39726 -6.41345
head 12.1863 0.85529 -2.97656
rclavicle 1.56294e-014 8.54774e-015
rhumerus -22.5024 32.0059 -93.7806
rradius 101.319
rwrist 35.0018
rhand -36.9339 -43.5403
rfingers 7.12502
rthumb -10.0108 -73.2822
lclavicle 1.56294e-014 8.54774e-015
lhumerus -31.381 -24.5333 102.971
lradius 85.3515
lwrist 12.3488
lhand -34.8108 -2.94361
lfingers 7.12502
lthumb -7.96218 26.8864
rfemur -1.65339 24.6286 24.6016
rtibia 2.76609
rfoot -10.4635 -22.027
rtoes -0.336049
lfemur 7.01714 -39.7805 -16.4896
ltibia -3.89008
lfoot -14.7543 48.6224
ltoes 8.13476
185
root -0.344105 17.5663 7.41939 6.08155 -2.025 -7.00089
lowerback 2.83495 1.06488 5.91243
upperback -7.17117 1.99844 1.5519
thorax -9.04623 0.624078 -1.8682
lowerneck -11.4001 1.10244 4.93731
upperneck 30.9487 2.42199 -6.38535
head 12.1926 0.864415 -2.95463
rclavicle -9.21864e-015 -1.5704e-014
rhumerus -22.6074 32.2242 -93.5303
rradius 97.503
rwrist 38.1458
rhand -35.51 -42.7154
rfingers 7.12502
rthumb -8.637 -72.5188
lclavicle -9.21864e-015 -1.5704e-014
lhumerus -31.1428 -24.764 102.966
lradius 85.1724
lwrist 12.365
lhand -35.0323 -3.01885
lfingers 7.12502
lthumb -8.17596 26.803
rfemur -1.46298 24.5093 24.7096
rtibia 2.8179
rfoot -10.4659 -21.7733
rtoes -0.414567
lfemur 7.33045 -39.6062 -16.6778
ltibia -3.88549
lfoot -14.6312 48.5819
ltoes 7.95766
186
root -0.346096 17.5606 7.41429 5.85998 -2.13634 -7.07629
lowerback 2.82169 1.12468 5.92928
upperback -7.07696 2.07584 1.57523
thorax -8.92871 0.666713 -1.85978
lowerneck -11.4595 1.04782 4.83708
upperneck 30.9737 2.33377 -6.28343
head 12.2064 0.825008 -2.9107
rclavicle 5.54112e-015 2.66371e-014
rhumerus -22.5959 32.8686 -93.3457
rradius 92.7126
rwrist 36.0054
rhand -31.0057 -40.2293
rfingers 7.12502
rthumb -4.28865 -70.1659
lclavicle 5.54112e-015 2.66371e-014
lhumerus -30.8441 -25.1085 102.927
lradius 85.0414
lwrist 12.0967
lhand -35.1354 -2.95856
lfingers 7.12502
lthumb -8.27544 26.8594
rfemur -1.24403 24.3888 24.8883
rtibia 2.84832
rfoot -10.414 -21.5552
rtoes -0.402356
lfemur 7.63117 -39.3934 -16.7842
ltibia -3.87585
lfoot -14.4634 48.5137
ltoes 7.67631
187
root -0.34906 17.5546 7.40678 5.63568 -2.25384 -7.12706
lowerback 2.86683 1.16591 5.85459
upperback -6.9947 2.13039 1.64523
thorax -8.86471 0.704658 -1.75021
lowerneck -11.5312 1.01432 4.81426
upperneck 31.0451 2.30603 -6.33107
head 12.2486 0.802904 -2.93127
rclavicle 1.43622e-014 1.17283e-014
rhumerus -22.3198 33.6274 -93.1124
rradius 89.0939
rwrist 28.6173
rhand -19.6037 -42.2221
rfingers 7.12502
rthumb 6.72242 -72.0954
lclavicle 1.43622e-014 1.17283e-014
lhumerus -30.5815 -25.3672 102.93
lradius 84.9955
lwrist 11.9425
lhand -35.0643 -2.98455
lfingers 7.12502
lthumb -8.20685 26.8361
rfemur -1.05506 24.2712 25.0334
rtibia 2.91485
rfoot -10.4056 -21.3384
rtoes -0.207415
lfemur 7.88203 -39.1492 -16.8653
ltibia -3.85748
lfoot -14.4976 48.41
ltoes 7.63799
188
root -0.350913 17.5495 7.39979 5.43506 -2.36259 -7.09341
lowerback 2.96469 1.20067 5.72739
upperback -6.95255 2.17602 1.68133
thorax -8.87704 0.737527 -1.64819
lowerneck -11.5443 1.0081 4.91341
upperneck 31.0578 2.3284 -6.5075
head 12.2611 0.802425 -3.01418
rclavicle 3.47873e-015 7.7526e-015
rhumerus -21.7153 33.5668 -92.6442
rradius 87.1504
rwrist 16.3196
rhand -3.991 -47.4665
rfingers 7.12502
rthumb 21.7626 -76.2631
lclavicle 3.47873e-015 7.7526e-015
lhumerus -30.4956 -25.5819 102.966
lradius 85.0735
lwrist 12.0164
lhand -34.9412 -3.05768
lfingers 7.12502
lthumb -8.08798 26.7675
rfemur -0.895495 24.1305 25.0589
rtibia 2.96498
rfoot -10.421 -21.123
rtoes -0.228725
lfemur 8.07066 -38.9223 -17.0119
ltibia -3.81738
lfoot -14.4948 48.2848
ltoes 7.59287
189
root -0.352047 17.5463 7.39388 5.29566 -2.46748 -6.99495
lowerback 3.0705 1.28167 5.63964
upperback -6.92793 2.28092 1.62249
thorax -8.90471 0.792089 -1.67508
lowerneck -11.4751 0.9844 5.06129
upperneck 30.9039 2.3238 -6.7302
head 12.1875 0.791421 -3.12135
rclavicle 2.21148e-015 -3.18055e-015
rhumerus -22.1202 35.0845 -93.2047
rradius 86.8281
rwrist -5.30771
rhand -12.1108 -50.4814
rfingers 7.12502
rthumb 13.9502 -79.9934
lclavicle 2.21148e-015 -3.18055e-015
lhumerus -30.4571 -25.8895 102.965
lradius 85.1597
lwrist 12.0983
lhand -34.7874 -3.11125
lfingers 7.12502
lthumb -7.93962 26.7196
rfemur -0.766515 24.0837 24.9881
rtibia 2.95013
rfoot -10.4202 -20.9959
rtoes -0.200321
lfemur 8.17631 -38.6736 -17.1807
ltibia -3.79294
lfoot -14.251 48.1482
ltoes 7.28654
190
root -0.355344 17.5462 7.3885 5.30016 -2.55951 -6.90717
lowerback 3.12214 1.38847 5.5712
upperback -6.92385 2.41955 1.57401
thorax -8.92069 0.862357 -1.704
lowerneck -11.3491 0.968366 5.11509
upperneck 30.5588 2.34444 -6.94487
head 12.0261 0.78316 -3.19822
rclavicle -3.21534e-014 -1.78906e-014
rhumerus -22.731 35.7512 -93.6043
rradius 88.7196
rwrist -10.6181
rhand -22.4489 -53.8398
rfingers 7.12502
rthumb 3.97526 -83.7824
lclavicle -3.21534e-014 -1.78906e-014
lhumerus -30.3711 -26.1708 102.986
lradius 85.2028
lwrist 12.1204
lhand -34.4442 -3.12744
lfingers 7.12502
lthumb -7.60834 26.7157
rfemur -0.778944 24.166 24.8873
rtibia 2.92539
rfoot -10.421 -20.9625
rtoes -0.144951
lfemur 8.10866 -38.4685 -17.2087
ltibia -3.78039
lfoot -14.2735 48.006
ltoes 7.43328
